<svg width="29" height="25" viewBox="0 0 29 25" fill="none" xmlns="http://www.w3.org/2000/svg">
<path d="M18.111 25C18.9398 25 19.7346 24.6708 20.3207 24.0847C20.9067 23.4987 21.236 22.7038 21.236 21.875C21.236 21.0462 20.9067 20.2513 20.3207 19.6653C19.7346 19.0792 18.9398 18.75 18.111 18.75C17.2822 18.75 16.4873 19.0792 15.9012 19.6653C15.3152 20.2513 14.986 21.0462 14.986 21.875C14.986 22.7038 15.3152 23.4987 15.9012 24.0847C16.4873 24.6708 17.2822 25 18.111 25ZM7.17345 25C8.00225 25 8.7971 24.6708 9.38316 24.0847C9.96921 23.4987 10.2984 22.7038 10.2984 21.875C10.2984 21.0462 9.96921 20.2513 9.38316 19.6653C8.7971 19.0792 8.00225 18.75 7.17345 18.75C6.34464 18.75 5.54979 19.0792 4.96374 19.6653C4.37769 20.2513 4.04845 21.0462 4.04845 21.875C4.04845 22.7038 4.37769 23.4987 4.96374 24.0847C5.54979 24.6708 6.34464 25 7.17345 25ZM27.5453 3.00469C27.9354 2.99211 28.3053 2.82831 28.5767 2.54794C28.8482 2.26757 29 1.89261 29 1.50234C29 1.11208 28.8482 0.737116 28.5767 0.456746C28.3053 0.176375 27.9354 0.012581 27.5453 0H25.7469C24.3375 0 23.1188 0.978125 22.8125 2.35313L20.8547 11.1687C20.5485 12.5437 19.3297 13.5219 17.9203 13.5219H6.18282L3.9297 4.50625H18.5313C18.9177 4.48862 19.2824 4.32272 19.5496 4.04305C19.8168 3.76338 19.9659 3.39148 19.9659 3.00469C19.9659 2.6179 19.8168 2.24599 19.5496 1.96633C19.2824 1.68666 18.9177 1.52076 18.5313 1.50312H3.9297C3.47292 1.50299 3.02213 1.607 2.61159 1.80724C2.20105 2.00748 1.84157 2.29869 1.56047 2.65873C1.27938 3.01876 1.08406 3.43814 0.98938 3.88499C0.894699 4.33185 0.903143 4.7944 1.01407 5.2375L3.2672 14.25C3.42963 14.9003 3.80483 15.4776 4.33315 15.8901C4.86146 16.3027 5.51254 16.5267 6.18282 16.5266H17.9203C19.2878 16.5267 20.6145 16.0605 21.6812 15.2048C22.748 14.3492 23.491 13.1553 23.7875 11.8203L25.7469 3.00469H27.5453Z" fill="white"/>
</svg>
