<svg width="25" height="21" viewBox="0 0 25 21" fill="none" xmlns="http://www.w3.org/2000/svg">
<path d="M22.9916 2.13513C20.2726 -0.583086 15.8494 -0.583086 13.1312 2.13513L12.4999 2.76612L11.8689 2.13513C9.15067 -0.583454 4.72713 -0.583454 2.00892 2.13513C-0.654109 4.79816 -0.671402 9.01934 1.96881 11.9543C4.37687 14.6302 11.4789 20.4113 11.7802 20.656C11.9848 20.8223 12.2309 20.9032 12.4756 20.9032C12.4837 20.9032 12.4918 20.9032 12.4995 20.9029C12.7526 20.9147 13.0076 20.8278 13.2188 20.656C13.5201 20.4113 20.6229 14.6302 23.0317 11.9539C25.6715 9.01934 25.6542 4.79816 22.9916 2.13513ZM21.3907 10.4774C19.5132 12.5632 14.3524 16.8649 12.4995 18.3914C10.6466 16.8653 5.48689 12.5639 3.60975 10.4778C1.76793 8.43066 1.75064 5.51524 3.56965 3.69623C4.49865 2.76759 5.71869 2.3029 6.93872 2.3029C8.15875 2.3029 9.37879 2.76722 10.3078 3.69623L11.6956 5.08403C11.8608 5.24923 12.069 5.34783 12.2876 5.38242C12.6423 5.45858 13.0271 5.35961 13.3031 5.0844L14.6916 3.69623C16.55 1.83858 19.5728 1.83895 21.4301 3.69623C23.2491 5.51524 23.2318 8.43066 21.3907 10.4774Z" fill="white"/>
</svg>
