<svg width="29" height="25" viewBox="0 0 29 25" fill="none" xmlns="http://www.w3.org/2000/svg">
<path d="M24.2181 25H17.968C17.7608 25 17.5621 24.9177 17.4156 24.7712C17.2691 24.6247 17.1868 24.4259 17.1868 24.2187V17.9687C17.1868 17.7615 17.1045 17.5627 16.9579 17.4162C16.8114 17.2697 16.6127 17.1874 16.4055 17.1874H11.7179C11.5107 17.1874 11.312 17.2697 11.1655 17.4162C11.019 17.5627 10.9367 17.7615 10.9367 17.9687V24.2187C10.9367 24.4259 10.8544 24.6247 10.7079 24.7712C10.5613 24.9177 10.3626 25 10.1554 25H3.90534C3.69814 25 3.49943 24.9177 3.35291 24.7712C3.2064 24.6247 3.12408 24.4259 3.12408 24.2187V15.1854C3.211 15.1263 3.31208 15.0931 3.39118 15.0218L14.0617 5.61499L24.7425 15.0341C24.8177 15.1014 24.9164 15.1317 24.9994 15.1903V24.2187C24.9994 24.4259 24.9171 24.6247 24.7705 24.7712C24.624 24.9177 24.4253 25 24.2181 25Z" fill="white"/>
<path d="M25.7774 13.861L14.58 3.98442C14.4373 3.85851 14.2535 3.78902 14.0632 3.78902C13.8728 3.78902 13.689 3.85851 13.5463 3.98442L2.34891 13.8615C2.19478 13.9999 1.992 14.0714 1.78515 14.0603C1.57831 14.0493 1.38433 13.9565 1.24587 13.8024L0.199953 12.6408C0.0615597 12.4867 -0.00996002 12.2839 0.00111939 12.077C0.0121988 11.8702 0.10497 11.6762 0.259036 11.5377L12.7592 0.502445C13.1169 0.179053 13.5819 0 14.0641 0C14.5464 0 15.0114 0.179053 15.3691 0.502445L20.3125 4.86627V2.34329C20.3125 2.13609 20.3948 1.93737 20.5413 1.79085C20.6879 1.64434 20.8866 1.56203 21.0938 1.56203H24.2188C24.426 1.56203 24.6247 1.64434 24.7712 1.79085C24.9178 1.93737 25.0001 2.13609 25.0001 2.34329V9.005L27.8658 11.5358C28.02 11.6742 28.1128 11.8681 28.124 12.075C28.1352 12.2818 28.0637 12.4846 27.9254 12.6388L26.8805 13.8019C26.742 13.956 26.548 14.0488 26.3412 14.0598C26.1343 14.0709 25.9316 13.9994 25.7774 13.861Z" fill="white"/>
</svg>
