<svg width="28" height="25" viewBox="0 0 28 25" fill="none" xmlns="http://www.w3.org/2000/svg">
<path d="M27.4711 10.3781L24.66 8.06802V3.46856C24.66 3.36634 24.6194 3.26831 24.5471 3.19603C24.4748 3.12375 24.3768 3.08314 24.2746 3.08314H22.7329C22.634 3.08444 22.5393 3.12372 22.4686 3.19287C22.3978 3.26201 22.3564 3.35572 22.3528 3.45459V6.17226L15.6017 0.62611C15.1167 0.22157 14.5052 0 13.8736 0C13.242 0 12.6305 0.22157 12.1455 0.62611L0.276109 10.3781C0.198476 10.4431 0.134402 10.5227 0.0875442 10.6125C0.0406867 10.7022 0.0119642 10.8003 0.00301672 10.9011C-0.00593072 11.002 0.00507219 11.1036 0.0353972 11.2001C0.0657221 11.2967 0.114775 11.3864 0.179755 11.464L0.673089 12.0566C0.804294 12.2133 0.992326 12.3114 1.19586 12.3295C1.39939 12.3475 1.60177 12.284 1.75852 12.153L3.08194 11.0666V13.8748H3.06701V23.8956C3.06866 24.1004 3.15106 24.2962 3.2963 24.4406C3.44155 24.5849 3.63789 24.6661 3.84266 24.6665H23.8944C24.0989 24.6665 24.2949 24.5853 24.4395 24.4407C24.5841 24.2961 24.6653 24.1001 24.6653 23.8956V11.0666L25.9901 12.1549C26.1469 12.286 26.3493 12.3495 26.5528 12.3314C26.7563 12.3133 26.9444 12.2152 27.0756 12.0585L27.5699 11.466C27.635 11.3881 27.6841 11.2982 27.7144 11.2013C27.7447 11.1045 27.7556 11.0026 27.7464 10.9015C27.7373 10.8005 27.7082 10.7022 27.661 10.6124C27.6137 10.5225 27.5492 10.4429 27.4711 10.3781ZM22.3528 10.7915H22.3427V22.354H16.9569V15.4165C16.9569 15.0076 16.7945 14.6155 16.5054 14.3264C16.2163 14.0372 15.8242 13.8748 15.4153 13.8748H12.3319C11.9231 13.8748 11.5309 14.0372 11.2418 14.3264C10.9527 14.6155 10.7903 15.0076 10.7903 15.4165V22.354H5.37951V9.36929L5.39444 9.35724V9.16453L13.8736 2.19909L22.3528 9.16646V10.7915Z" fill="white"/>
</svg>
